<svg xmlns="http://www.w3.org/2000/svg" width="50" height="50"><defs><style>.prefix__b{fill:#fff}</style></defs><g stroke="#fff" stroke-width="3" fill="none"><circle cx="25" cy="25" r="25" stroke="none"/><circle cx="25" cy="25" r="23.5"/></g><path class="prefix__b" d="M39.225 20.843l-9.235-9.236a2.654 2.654 0 00-3.744 0l-14.64 14.639a2.653 2.653 0 000 3.744l1.139 1.139 7.654 7.654H19.34a.608.608 0 000 1.215h12.152a.608.608 0 000-1.215h-6.459l14.2-14.2a2.651 2.651 0 00-.008-3.74zm-.859 2.88L23.727 38.367a1.422 1.422 0 01-1.011.417 1.421 1.421 0 01-1.01-.417L14.033 30.7l14.06-14.059a.608.608 0 10-.859-.859L13.175 29.841l-.71-.71a1.438 1.438 0 010-2.026l14.64-14.639a1.439 1.439 0 012.026 0l3.287 3.287-14.06 14.06a.608.608 0 00.859.859l14.06-14.059 5.089 5.089a1.434 1.434 0 010 2.021z"/><path class="prefix__b" d="M25.804 28.383a.608.608 0 00-.859 0l-4.781 4.781a.608.608 0 00.859.859l4.781-4.781a.608.608 0 000-.859zM23.842 32.922l-1.965 1.961a.608.608 0 00.859.859l1.961-1.961a.608.608 0 00-.859-.859zM25.647 31.117l-.258.258a.608.608 0 10.859.859l.258-.258a.608.608 0 10-.859-.859zM34.022 20.164a.608.608 0 00-.859 0l-2.578 2.578a.608.608 0 000 .859l1.719 1.716a.608.608 0 00.859 0l2.578-2.578a.608.608 0 000-.859zm-1.289 3.867l-.859-.859 1.719-1.719.859.859zM29.081 15.401a.605.605 0 00.43-.178l.258-.258a.608.608 0 00-.859-.859l-.258.258a.608.608 0 00.43 1.037zM16.939 31.23l-.258.258a.608.608 0 00.859.859l.258-.258a.608.608 0 00-.859-.859z"/></svg>